# xmcd
#
# Track frame offsets:
# 150
# 13712
# 23077
# 37617
# 54297
# 67035
# 77695
# 96532
# 114560
# 127157
# 143252
# 155247
# 170620
# 179132
# 190682
# 202790
# 214382
#
# Disc length: 2968 seconds
#
#
# Revision: 0
# Processed by: cddbd v1.5.2PL0 Copyright (c) Steve Scherf et al.
# Submitted via: FreeRIP 2.942 
#
DISCID=ec0b9611
DTITLE=Trientiner Bergsteigerchor - Montanara Hallelujah
DYEAR=1996
DGENRE=Folklore
TTITLE0=Montanara Hallelujah
TTITLE1=O Carlota
TTITLE2=Quanta Stelle (Weißt Du, wieviel Sternlein Stehen...)
TTITLE3=Tornero (Canto dell´ emiogrante trentino)
TTITLE4=Heilige Berge (montgne Sante)
TTITLE5=Quande Ero Piccolina
TTITLE6=Bolentina
TTITLE7=Madonnina Del Miei Monti (Madonna delle Montagtne)
TTITLE8=Varda La´
TTITLE9=La Montanara
TTITLE10=Oi Sonator
TTITLE11=Le Parole (Santa Katharina)
TTITLE12=Se La Te Domanda
TTITLE13=La Pastora
TTITLE14=Saluto Alla Valle (Im schönsten Wiesengrunde)
TTITLE15=Vien Qua´,vien Qua´Bepiuna
TTITLE16=E Salta for So Pare
EXTD=
EXTT0=
EXTT1=
EXTT2=
EXTT3=
EXTT4=
EXTT5=
EXTT6=
EXTT7=
EXTT8=
EXTT9=
EXTT10=
EXTT11=
EXTT12=
EXTT13=
EXTT14=
EXTT15=
EXTT16=
PLAYORDER=
